<?xml version="1.0" encoding="utf-8"?>
<!-- Generator: Adobe Illustrator 19.2.1, SVG Export Plug-In . SVG Version: 6.00 Build 0)  -->
<svg version="1.1" id="Capa_1" xmlns="http://www.w3.org/2000/svg" xmlns:xlink="http://www.w3.org/1999/xlink" x="0px" y="0px"
	 viewBox="0 0 50 25" style="enable-background:new 0 0 50 25;" xml:space="preserve">
<style type="text/css">
	.st0{fill:#666600;}
	.st1{fill:#B3FE01;}
</style>
<g transform="matrix( 1, 0, 0, 1, 0,0) ">
	<g>
		<g id="Layer0_0_FILL">
			<path class="st0" d="M46.5,2.4v20.1l3.5-4.3V7L46.5,2.4 M17.5,25l3.9-2.9v-3.2L16,18.2L17.5,25 M20.9,1.6l-3-1.6l-2.3,7
				c1.3-0.2,2.6-0.4,3.9-0.5l1.3-0.2l0,0V1.6z"/>
			<path class="st1" d="M16,18.2l5.3,0.8l25.1,3.6V2.4L20.9,6.3l0,0l-1.3,0.2c-1.3,0.2-2.6,0.4-3.9,0.5l2.3-7L0,12.1L17.5,25
				L16,18.2z"/>
		</g>
	</g>
</g>
</svg>
