<?xml version="1.0" encoding="utf-8"?>
<svg xmlns="http://www.w3.org/2000/svg" version="1.1" xmlns:xlink="http://www.w3.org/1999/xlink" preserveAspectRatio="none" x="0px" y="0px" width="25px" height="50px" viewBox="0 0 25 50">
<defs>
<g id="Layer0_0_FILL">
<path fill="#666600" stroke="none" d="
M 22.6 46.5
L 2.45 46.5 6.8 50 17.95 50 22.6 46.5
M 0 17.45
L 2.85 21.35 6.05 21.35 6.8 16.05 0 17.45
M 23.4 20.85
L 25 17.9 17.95 15.65
Q 18.2357421875 17.59921875 18.5 19.55
L 18.7 20.85 18.7 20.85 23.4 20.85 Z"/>

<path fill="#B3FE01" stroke="none" d="
M 6.8 16.05
L 6.05 21.35 2.45 46.5 22.6 46.5 18.7 20.85 18.7 20.85 18.5 19.55
Q 18.2357421875 17.59921875 17.95 15.65
L 25 17.9 12.95 0 0 17.45 6.8 16.05 Z"/>
</g>
</defs>

<g transform="matrix( 1, 0, 0, 1, 0,0) ">
<use xlink:href="#Layer0_0_FILL"/>
</g>
</svg>
