<?xml version="1.0" encoding="utf-8"?>
<!-- Generator: Adobe Illustrator 19.2.1, SVG Export Plug-In . SVG Version: 6.00 Build 0)  -->
<svg version="1.1" id="Capa_1" xmlns="http://www.w3.org/2000/svg" xmlns:xlink="http://www.w3.org/1999/xlink" x="0px" y="0px"
	 viewBox="0 0 100 100" style="enable-background:new 0 0 100 100;" xml:space="preserve">
<style type="text/css">
	.st0{fill:#676767;}
</style>
<path class="st0" d="M50,1.3C23.1,1.3,1.3,23.1,1.3,50S23.1,98.7,50,98.7S98.7,76.9,98.7,50S76.9,1.3,50,1.3z M10.3,50c0-9.2,3.1-17.7,8.4-24.4
	l56,55.6c-6.8,5.4-15.3,8.6-24.7,8.6C28.1,89.7,10.3,71.9,10.3,50z M81,74.8L25.3,18.9c6.8-5.4,15.4-8.6,24.7-8.6
	c21.9,0,39.7,17.8,39.7,39.7C89.7,59.4,86.5,68,81,74.8z"/>
</svg>
